<svg width="2581" height="1024" xmlns="http://www.w3.org/2000/svg" class="icon">
 <defs>
  <style type="text/css"/>
 </defs>
 <g>
  <title>background</title>
  <rect fill="none" id="canvas_background" height="1026" width="2583" y="-1" x="-1"/>
 </g>
 <g>
  <title>Layer 1</title>
  <path id="svg_1" fill="#9A2D2F" d="m951.6,703.5c-13.8,0 -20.7,-9.8 -25.7,-16.9c-5.1,-7.2 -7.7,-10.2 -12.7,-10.2s-7.5,2.9 -12.7,10.2c-5.1,7.1 -12,16.9 -25.7,16.9c-13.8,0 -20.7,-9.8 -25.7,-16.9c-5.1,-7.2 -7.7,-10.2 -12.7,-10.2s-7.5,2.9 -12.7,10.2c-5.1,7.1 -12,16.9 -25.7,16.9s-20.7,-9.8 -25.7,-16.9c-5.1,-7.2 -7.7,-10.2 -12.7,-10.2c-4.4,0 -8,-3.6 -8,-7.9s3.6,-7.9 8,-7.9c13.8,0 20.7,9.8 25.7,16.9c5.1,7.2 7.7,10.2 12.7,10.2s7.5,-2.9 12.7,-10.2c5.1,-7.1 12,-16.9 25.7,-16.9s20.7,9.8 25.7,16.9c5.1,7.2 7.7,10.2 12.7,10.2c5,0 7.5,-2.9 12.7,-10.2c5.1,-7.1 12,-16.9 25.7,-16.9s20.7,9.8 25.7,16.9c5.1,7.2 7.7,10.2 12.7,10.2c4.4,0 8,3.6 8,7.9s-3.6,7.9 -8,7.9zm0,-50c-13.8,0 -20.7,-9.8 -25.7,-16.9c-5.1,-7.2 -7.7,-10.2 -12.7,-10.2s-7.5,2.9 -12.7,10.2c-5.1,7.1 -12,16.9 -25.7,16.9c-13.8,0 -20.7,-9.8 -25.7,-16.9c-5.1,-7.2 -7.7,-10.2 -12.7,-10.2s-7.5,2.9 -12.7,10.2c-5.1,7.1 -12,16.9 -25.7,16.9s-20.7,-9.8 -25.7,-16.9c-5.1,-7.2 -7.7,-10.2 -12.7,-10.2c-4.4,0 -8,-3.6 -8,-7.9s3.6,-7.9 8,-7.9c13.8,0 20.7,9.8 25.7,16.9c5.1,7.2 7.7,10.2 12.7,10.2s7.5,-2.9 12.7,-10.2c5.1,-7.1 12,-16.9 25.7,-16.9s20.7,9.8 25.7,16.9c5.1,7.2 7.7,10.2 12.7,10.2c5,0 7.5,-2.9 12.7,-10.2c5.1,-7.1 12,-16.9 25.7,-16.9s20.7,9.8 25.7,16.9c5.1,7.2 7.7,10.2 12.7,10.2c4.4,0 8,3.6 8,7.9s-3.6,7.9 -8,7.9z"/>
  <path id="svg_2" fill="#FFEB4D" d="m342.6,104m-32,0a32,32 0 1 0 64,0a32,32 0 1 0 -64,0z"/>
  <path id="svg_3" fill="#9A2D2F" d="m342.6,144c-22.1,0 -40,-17.9 -40,-40s17.9,-40 40,-40s40,17.9 40,40s-17.9,40 -40,40zm0,-64c-13.2,0 -24,10.8 -24,24s10.8,24 24,24s24,-10.8 24,-24s-10.8,-24 -24,-24z"/>
  <path id="svg_4" fill="#FFEB4D" d="m915.6,336c0,141.4 -114.6,256 -256,256s-256,-114.6 -256,-256c0,-76.2 33.3,-144.6 86.1,-191.5c45.2,-40.1 104.7,-64.5 169.9,-64.5c141.4,0 256,114.6 256,256z"/>
  <path id="svg_5" fill="#FFFFFF" d="m433.6,403.1c96,-40.7 35,-139.9 68,-191.6c31.1,-48.7 106.3,-27.7 132,-31.8s73.2,-31.2 73,-79.7c0,-6 -0.5,-11.3 -1.2,-15.9c-14.8,-2.7 -30.1,-4.1 -45.8,-4.1c-65.2,0 -124.7,24.4 -169.9,64.5c-52.8,46.9 -86.1,115.3 -86.1,191.5c0,15.4 1.4,30.4 4,45.1c7.4,17.3 16,26.3 26,22z"/>
  <path id="svg_6" fill="#C0FCD0" d="m549.6,446c0,123.7 -100.3,224 -224,224s-224,-100.3 -224,-224c0,-66.6 29,-126.4 75.2,-167.4c39.6,-35.2 91.7,-56.6 148.8,-56.6c123.7,0 224,100.3 224,224z"/>
  <path id="svg_7" fill="#9A2D2F" d="m925.6,943l-259,0l0,-335.1c34.2,-0.9 67.5,-8 98.9,-21.3c32.4,-13.7 61.5,-33.3 86.5,-58.3s44.6,-54.1 58.3,-86.5c14.2,-33.5 21.4,-69.2 21.4,-105.9s-7.2,-72.3 -21.4,-105.9c-13.7,-32.4 -33.3,-61.5 -58.3,-86.5s-54.1,-44.6 -86.5,-58.3c-33.5,-14 -69.2,-21.2 -105.9,-21.2c-66.6,0 -130.7,24.3 -180.5,68.5c-28.4,25.2 -50.8,55.4 -66.6,89.7c-27.7,-10.8 -56.9,-16.2 -86.9,-16.2c-23.1,0 -45.9,3.3 -67.6,9.7c-2.1,-1.6 -4.2,-4.3 -7,-8.3c-5.1,-7.1 -12,-16.9 -25.7,-16.9c-13.8,0 -20.7,9.8 -25.7,16.9c-5.1,7.2 -7.7,10.2 -12.7,10.2c-5,0 -7.5,-2.9 -12.7,-10.2c-5.1,-7.1 -12,-16.9 -25.7,-16.9c-13.8,0 -20.7,9.8 -25.7,16.9c-5.1,7.2 -7.7,10.2 -12.7,10.2c-5,0 -7.5,-2.9 -12.7,-10.2c-5.1,-7.1 -12,-16.9 -25.7,-16.9c-4.4,0 -8,3.6 -8,7.9s3.6,7.9 8,7.9c5,0 7.5,2.9 12.7,10.2c5.1,7.1 12,16.9 25.7,16.9c13.8,0 20.7,-9.8 25.7,-16.9c5.1,-7.2 7.7,-10.2 12.7,-10.2c5,0 7.5,2.9 12.7,10.2c5.1,7.1 12,16.9 25.7,16.9c13.8,0 20.7,-9.8 25.7,-16.9c5.1,-7.2 7.7,-10.2 12.7,-10.2s7.5,2.9 12.7,10.2c1.1,1.5 2.2,3.1 3.5,4.7c-23.7,8.9 -46.1,21.6 -66.1,37.7c-0.4,-0.5 -0.7,-1 -1.1,-1.5c-5.1,-7.1 -12,-16.9 -25.7,-16.9c-13.8,0 -20.7,9.8 -25.7,16.9c-5.1,7.2 -7.7,10.2 -12.7,10.2c-5,0 -7.5,-2.9 -12.7,-10.2c-5.1,-7.1 -12,-16.9 -25.7,-16.9c-4.4,0 -8,3.6 -8,7.9s3.6,7.9 8,7.9c5,0 7.5,2.9 12.7,10.2c5.1,7.1 12,16.9 25.7,16.9c13.8,0 20.7,-9.8 25.7,-16.9c5.1,-7.2 7.7,-10.2 12.7,-10.2c5,0 7.5,2.9 12.7,10.2c0.6,0.9 1.3,1.9 2,2.8c-23.6,21.7 -42.4,47.5 -55.7,76.6c-14.4,31.5 -21.7,65.1 -21.7,99.9c0,32.4 6.3,63.8 18.9,93.4c12.1,28.6 29.4,54.2 51.4,76.3c22,22 47.7,39.3 76.3,51.4c27.2,11.5 55.9,17.8 85.4,18.7l0,257.4l-216,0c-4.4,0 -8,3.6 -8,8s3.6,8 8,8l824,0c4.4,0 8,-3.6 8,-8s-3.9,-8 -8.3,-8zm-435.8,-798.5c45.1,-40.1 104.6,-64.5 169.8,-64.5c141.4,0 256,114.6 256,256c0,139 -110.9,252.2 -249,255.9l0,-183.6l95.7,-95.7l-11.3,-11.3l-84.3,84.3l0,-51.6l-16,0l0,106.7l-66.3,-66.3l-11.4,11.3l77.7,77.7l0,128.5c-41.2,-1.4 -80,-12.6 -114,-31.3c3.7,-6.8 7.1,-13.9 10.2,-21.1c12.5,-29.6 18.9,-61 18.9,-93.4c0,-32.4 -6.3,-63.8 -18.9,-93.4c-12.1,-28.6 -29.4,-54.2 -51.4,-76.3c-19.9,-19.9 -42.8,-35.9 -68.1,-47.8c14.7,-32.3 36.1,-60.9 62.4,-84.1zm-388.2,301.5c0,-65.6 28.2,-124.6 73.1,-165.5c3.3,1.8 7.3,3 12.1,3c13.8,0 20.7,-9.8 25.7,-16.9c5.1,-7.2 7.7,-10.2 12.7,-10.2s7.5,2.9 12.7,10.2c5.1,7.1 12,16.9 25.7,16.9c4.4,0 8,-3.6 8,-7.9s-3.6,-7.9 -8,-7.9c-5,0 -7.5,-2.9 -12.7,-10.2c-3.9,-5.6 -9,-12.7 -17.5,-15.6c7.7,-3.5 15.6,-6.5 23.7,-9.1c2,0.5 4.2,0.8 6.5,0.8c3.3,0 6.1,-2 7.3,-4.8c17.5,-4.4 35.8,-6.7 54.7,-6.7c28.4,0 55.6,5.3 80.6,15c5,1.9 9.9,4 14.7,6.3c76,35.8 128.7,113.1 128.7,202.7c0,38.5 -9.7,74.7 -26.8,106.4c-2.5,4.7 -5.3,9.3 -8.1,13.8c-38.4,60.3 -104.9,101 -181,103.6l0,-114.6l87.8,-87.8l7.8,-7.8l-11.3,-11.4l-4.2,4.2l-80.2,80.2l0,-50.7l-16,0l0,106.7l-66.3,-66.3l-11.3,11.3l77.7,77.7l0,58.5c-120.1,-4.3 -216.1,-102.9 -216.1,-223.9zm232,239.9c29.6,-1 58.3,-7.2 85.4,-18.7c28.6,-12.1 54.2,-29.4 76.3,-51.4c12.6,-12.6 23.7,-26.5 33.1,-41.4c8.2,4.5 16.6,8.6 25.3,12.3c30.8,13 63.3,20.1 96.9,21.2l0,335.1l-317,0l0,-257.1z"/>
  <path id="svg_8" fill="#FFFFFF" d="m176.8,278.6c-46.1,41 -75.2,100.8 -75.2,167.4c0,27.7 5.1,54.3 14.3,78.8c51.3,-47.1 9.1,-127.9 37.7,-172.8c31.1,-48.7 106.3,-27.7 132,-31.8s73.2,-31.2 73,-79.7c0,-6.1 -0.5,-11.5 -1.3,-16.3c-10.4,-1.5 -20.9,-2.2 -31.7,-2.2c-57.1,0 -109.3,21.4 -148.8,56.6z"/>
  <text style="cursor: move;" xml:space="preserve" text-anchor="start" font-family="Oswald, sans-serif" font-size="227" id="svg_10" y="597" x="1054" stroke-width="0" stroke="#000" fill="#000000">Z x y's B l o g</text>
 </g>
</svg>