<?xml version="1.0"?>
<svg width="1800" height="1200" xmlns="http://www.w3.org/2000/svg" xmlns:svg="http://www.w3.org/2000/svg" xmlns:xlink="http://www.w3.org/1999/xlink">
 <!-- Created with SVG-edit - https://github.com/SVG-Edit/svgedit-->
 <defs>
  <symbol class="icon" height="200" id="svg_1" viewBox="0 0 1024 1024" width="200" xmlns="http://www.w3.org/2000/svg" xmlns:xlink="http://www.w3.org/1999/xlink">
   <defs>
    <style type="text/css"/>
   </defs>
   <path d="m245.5,582.9c-2.6,5.2 -1,9.8 -0.4,11.7c0.5,1.4 11.7,33.6 43,60.1c16.3,13.8 34.9,23.5 55.5,28.8c24.9,6.5 52.5,6.5 82.2,0.2c4,-0.9 7.4,-3.4 9.3,-7c1.9,-3.6 2.1,-7.9 0.5,-11.6c-0.5,-1.3 -13.5,-32.3 -42,-58.8c-27,-25.1 -73.1,-50.7 -139.8,-30.4c-3.6,1 -6.6,3.6 -8.3,7z" fill="#7CD0A4"/>
   <path d="m503.1,758.3l0.8,1.4l1,1.2l1.2,1l1.3,0.8l1.4,0.6l1.5,0.4l1.5,0.2l1.5,-0.1l1.5,-0.3l1.5,-0.6l1.4,-0.8l1.2,-1l1,-1.2l0.8,-1.3l0.6,-1.4l0.4,-1.5l0.2,-1.5l-0.1,-1.5l-0.3,-1.5l-0.6,-1.5l-0.3,-0.6l-0.3,-0.6l-0.3,-0.6l-0.3,-0.6l-0.3,-0.6l-0.3,-0.6l-0.3,-0.6l-0.3,-0.6l-0.3,-0.6l-0.3,-0.6l-0.3,-0.6l-0.3,-0.6l-0.3,-0.6l-0.3,-0.6l-0.3,-0.6l-0.3,-0.6l-0.3,-0.6l-0.3,-0.6l-0.3,-0.6l-0.3,-0.6l-0.3,-0.6l0.4,-0.1l-0.3,-0.6l-0.3,-0.6l-0.3,-0.6l-0.3,-0.6l-0.3,-0.6l-0.3,-0.6l-0.3,-0.6l-0.3,-0.6l-0.3,-0.6l-0.3,-0.6l-0.3,-0.6l-0.3,-0.6l-0.3,-0.6l-0.3,-0.6l-0.3,-0.6l-0.3,-0.6l-0.3,-0.6l-0.3,-0.6l-0.3,-0.6l-0.3,-0.6l-0.3,-0.6l-0.3,-0.6l-0.3,-0.6l-0.3,-0.6l-0.3,-0.6l-0.3,-0.6l-0.3,-0.6l-0.3,-0.6l-0.3,-0.6l-0.3,-0.6l-0.3,-0.6l-0.3,-0.6l-0.3,-0.6l-0.3,-0.6l-0.3,-0.6l-0.3,-0.6l-0.3,-0.6l-0.3,-0.6l-0.3,-0.6l-0.4,-0.6l-0.4,-0.6l-0.4,-0.6l-0.4,-0.6l-0.4,-0.6l-0.4,-0.6l-0.4,-0.6l-0.4,-0.5l-0.4,-0.5l-0.4,-0.5l-0.4,-0.5l-0.4,-0.5l-0.4,-0.5l-0.4,-0.5l-0.4,-0.5l-0.4,-0.5l-0.4,-0.5l-0.4,-0.5l-0.4,-0.5l-0.4,-0.5l-0.4,-0.5l-0.4,-0.5l-0.4,-0.5l-0.4,-0.5l-0.4,-0.5l-0.4,-0.5l-0.4,-0.5l-0.4,-0.5l-0.4,-0.5l-0.4,-0.5l-0.4,-0.5l-0.4,-0.5l-0.5,-0.5l-0.5,-0.5l-0.5,-0.5l-0.5,-0.5l-0.5,-0.5l-0.9,-0.9l-0.5,-0.5l-0.5,-0.5l-0.5,-0.5l-0.5,-0.5l-0.5,-0.5l-0.5,-0.5l-0.5,-0.5l-0.5,-0.4l-0.5,-0.4l-0.5,-0.4l-0.5,-0.4l-0.5,-0.4l-0.5,-0.4l-0.5,-0.4l-0.5,-0.4l-0.5,-0.4l-0.5,-0.4l-0.5,-0.4l-0.5,-0.4l-0.5,-0.4l-0.5,-0.4l-0.5,-0.4l-0.5,-0.4l-0.5,-0.4l-0.5,-0.4l-0.5,-0.4l-0.5,-0.4l-0.5,-0.4l-0.5,-0.4l-0.5,-0.4l-0.5,-0.4l-0.5,-0.4l-0.5,-0.4l-0.6,-0.4l-0.6,-0.4l-0.6,-0.4l-0.6,-0.4l-0.6,-0.4l-0.6,-0.4l-0.6,-0.4l-0.6,-0.3l-0.6,-0.3l-0.6,-0.3l-0.6,-0.3l-0.6,-0.3l-0.6,-0.3l-0.6,-0.3l-0.6,-0.3l-0.6,-0.3l-0.6,-0.3l-0.6,-0.3l-0.6,-0.3l-0.6,-0.3l-0.6,-0.3l-0.6,-0.3l-0.6,-0.3l-0.6,-0.3l-0.6,-0.3l-0.6,-0.3l-0.6,-0.3l-0.6,-0.3l-0.6,-0.3l-0.6,-0.3l-0.6,-0.3l-0.6,-0.3l-0.6,-0.3l-0.6,-0.3l-0.6,-0.3l-0.6,-0.3l-0.6,-0.3l-0.4,0.2l-0.6,-0.3l-0.6,-0.3l-0.6,-0.3l-0.6,-0.3l-0.6,-0.3l-0.6,-0.3l-0.6,-0.3l-0.6,-0.3l-0.6,-0.3l-0.6,-0.3l-0.6,-0.3l-0.6,-0.3l-0.6,-0.3l-0.6,-0.3l-0.6,-0.3l-0.6,-0.3l-0.6,-0.3l-0.6,-0.3l-0.6,-0.3l-0.6,-0.3l-0.6,-0.3l-0.6,-0.3l-0.6,-0.3l-0.6,-0.3l-0.6,-0.3l-0.6,-0.3l-0.6,-0.3l-1.2,-0.5l-2.6,-0.4l-3.1,0.1l-2.9,1l-2.4,1.9l-1.8,2.6l-0.9,3.1l0.1,3.1l1,2.9l1.9,2.4l2.6,1.8l1.2,0.5l0.6,0.3l0.6,0.3l0.6,0.3l0.6,0.3l0.6,0.3l0.6,0.3l0.6,0.3l0.6,0.3l0.6,0.3l0.6,0.3l0.6,0.3l0.6,0.3l0.6,0.3l0.6,0.3l0.6,0.3l0.6,0.3l0.6,0.3l0.6,0.3l0.6,0.3l0.6,0.3l0.6,0.3l0.6,0.3l0.6,0.3l0.6,0.3l0.6,0.3l0.6,0.3l0.6,0.3l0.5,0.3l0.5,0.3l0.5,0.3l0.5,0.3l0.5,0.3l0.5,0.3l0.5,0.3l0.5,0.3l0.5,0.3l0.5,0.3l0.5,0.3l0.5,0.3l0.5,0.3l0.5,0.3l0.5,0.3l0.5,0.3l0.5,0.3l0.5,0.3l0.5,0.3l0.5,0.3l0.5,0.3l0.5,0.3l0.5,0.3l0.5,0.3l0.5,0.3l0.5,0.3l0.5,0.3l0.5,0.3l0.5,0.3l0.5,0.3l0.5,0.3l0.5,0.3l0.5,0.3l0.5,0.3l0.5,0.3l0.5,0.3l0.5,0.3l0.5,0.3l0.5,0.3l0.5,0.3l0.5,0.3l0.5,0.3l0.5,0.3l0.5,0.3l0.5,0.3l0.5,0.3l0.4,0.3l0.4,0.3l0.4,0.3l0.4,0.3l0.4,0.3l0.4,0.3l0.4,0.3l0.4,0.3l0.4,0.3l0.4,0.3l0.4,0.3l0.4,0.3l0.4,0.3l0.4,0.4l0.4,0.4l0.4,0.4l0.4,0.4l0.4,0.4l0.4,0.4l0.4,0.4l0.4,0.4l0.4,0.4l0.4,0.4l0.4,0.4l0.4,0.3l0.8,0.8l0.4,0.4l0.4,0.4l0.4,0.4l0.4,0.4l0.4,0.4l0.4,0.4l0.4,0.4l0.4,0.4l0.4,0.4l0.4,0.4l0.4,0.4l0.3,0.4l0.3,0.4l0.3,0.4l0.3,0.4l0.3,0.4l0.3,0.4l0.3,0.4l0.3,0.4l0.3,0.4l0.3,0.4l0.3,0.4l0.3,0.4l0.3,0.5l0.3,0.5l0.3,0.5l0.3,0.5l0.3,0.5l0.3,0.5l0.3,0.5l0.3,0.5l0.3,0.5l0.3,0.5l0.3,0.5l0.3,0.5l0.3,0.5l0.3,0.5l0.3,0.5l0.3,0.5l0.3,0.5l0.3,0.5l0.3,0.5l0.3,0.5l0.3,0.5l0.3,0.5l0.3,0.5l0.3,0.5l0.3,0.5l0.3,0.5l0.3,0.5l0.3,0.5l0.3,0.5l0.3,0.5l0.3,0.5l0.3,0.5l0.3,0.5l0.3,0.5l0.3,0.5l0.3,0.5l0.3,0.5l0.3,0.5l0.3,0.5l0.3,0.5l0.3,0.5l0.3,0.5l0.3,0.5l0.3,0.5l0.3,0.5l0.3,0.5l0.3,0.6l0.3,0.6l0.3,0.6l0.3,0.6l0.3,0.6l0.3,0.6l0.3,0.6l0.3,0.6l0.3,0.6l0.3,0.6l0.3,0.6l0.3,0.6l0.3,0.6l0.3,0.6l0.3,0.6l0.3,0.6l0.3,0.6l0.3,0.6l0.3,0.6l0.3,0.6l0.3,0.6l0.3,0.6l0.3,0.6l0.3,0.6l0.3,0.6l0.3,0.6l0.3,0.6l0.3,0.6l-0.8,-0.4zm278.8,-220.9c2.6,5.2 1,9.8 0.4,11.7c-0.5,1.4 -11.7,33.6 -43,60.1c-16.3,13.8 -34.9,23.5 -55.5,28.8c-24.9,6.5 -52.5,6.5 -82.2,0.2c-4,-0.9 -7.4,-3.4 -9.3,-7c-1.9,-3.6 -2.1,-7.9 -0.5,-11.6c0.5,-1.3 13.5,-32.3 42,-58.8c27,-25.1 73.1,-50.7 139.8,-30.4c3.7,1 6.7,3.5 8.3,7z" fill="#7CD0A4"/>
   <path d="m524.1,713.2l-0.8,1.4l-1,1.2l-1.2,1l-1.3,0.8l-1.4,0.6l-1.5,0.4l-1.5,0.2l-1.6,-0.1l-1.6,-0.3l-1.5,-0.6l-1.4,-0.8l-1.2,-1l-1,-1.2l-0.8,-1.3l-0.6,-1.4l-0.4,-1.5l-0.2,-1.5l0.1,-1.6l0.3,-1.6l0.6,-1.5l0.3,-0.6l0.3,-0.6l0.3,-0.6l0.3,-0.6l0.3,-0.6l0.3,-0.6l0.3,-0.6l0.3,-0.6l0.3,-0.6l0.3,-0.6l0.3,-0.6l0.3,-0.6l0.3,-0.6l0.3,-0.6l0.3,-0.6l0.3,-0.6l0.3,-0.6l0.3,-0.6l0.3,-0.6l0.3,-0.6l0.3,-0.6l0.3,-0.6l0.3,-0.6l0.3,-0.6l0.3,-0.6l0.3,-0.6l0.3,-0.6l0.3,-0.6l0.3,-0.6l0.3,-0.6l0.3,-0.6l0.3,-0.6l0.3,-0.6l0.3,-0.6l0.3,-0.6l0.3,-0.6l0.3,-0.6l0.3,-0.6l0.3,-0.6l0.3,-0.6l0.3,-0.6l0.3,-0.6l0.3,-0.6l0.3,-0.6l0.3,-0.6l0.3,-0.6l0.3,-0.6l0.3,-0.6l0.3,-0.6l0.3,-0.6l0.3,-0.6l0.3,-0.6l0.3,-0.6l0.3,-0.6l0.3,-0.6l0.3,-0.6l0.3,-0.6l0.3,-0.6l0.3,-0.6l0.4,-0.6l0.4,-0.6l0.4,-0.6l0.4,-0.6l0.4,-0.6l0.4,-0.6l0.4,-0.6l0.4,-0.6l0.4,-0.6l0.4,-0.6l0.4,-0.6l0.4,-0.5l0.4,-0.5l0.4,-0.5l0.4,-0.5l0.4,-0.5l0.4,-0.5l0.4,-0.5l0.4,-0.5l0.4,-0.5l0.4,-0.5l0.4,-0.5l0.4,-0.5l0.4,-0.5l0.4,-0.5l0.4,-0.5l0.4,-0.5l0.4,-0.5l0.4,-0.5l0.4,-0.5l0.4,-0.5l0.4,-0.5l0.4,-0.5l0.5,-0.5l0.5,-0.5l0.5,-0.5l0.5,-0.5l0.5,-0.5l0.5,-0.5l0.9,-0.9l0.5,-0.5l0.5,-0.5l0.5,-0.5l0.5,-0.5l0.5,-0.5l0.5,-0.5l0.5,-0.5l0.5,-0.5l0.5,-0.4l0.5,-0.4l0.5,-0.4l0.5,-0.4l0.5,-0.4l0.5,-0.4l0.5,-0.4l0.5,-0.4l0.5,-0.4l0.5,-0.4l0.5,-0.4l0.5,-0.4l0.5,-0.4l0.5,-0.4l0.5,-0.4l0.5,-0.4l0.5,-0.4l0.5,-0.4l0.5,-0.4l0.5,-0.4l0.5,-0.4l0.5,-0.4l0.5,-0.4l0.6,-0.4l0.6,-0.4l0.6,-0.4l0.6,-0.4l0.6,-0.4l0.6,-0.4l0.6,-0.4l0.6,-0.4l0.6,-0.4l0.6,-0.4l0.6,-0.3l0.6,-0.3l0.6,-0.3l0.6,-0.3l0.6,-0.3l0.6,-0.3l0.6,-0.3l0.6,-0.3l0.6,-0.3l0.6,-0.3l0.6,-0.3l0.6,-0.3l0.6,-0.3l0.6,-0.3l0.6,-0.3l0.6,-0.3l0.6,-0.3l0.6,-0.3l0.6,-0.3l0.6,-0.3l0.6,-0.3l0.6,-0.3l0.6,-0.3l0.6,-0.3l0.6,-0.3l0.6,-0.3l0.6,-0.3l0.6,-0.3l0.6,-0.3l0.6,-0.3l0.6,-0.3l0.6,-0.3l0.6,-0.3l0.6,-0.3l0.6,-0.3l0.6,-0.3l0.6,-0.3l0.6,-0.3l0.6,-0.3l0.6,-0.3l0.6,-0.3l0.6,-0.3l0.6,-0.3l0.6,-0.3l0.6,-0.3l0.6,-0.3l0.6,-0.3l0.6,-0.3l0.6,-0.3l0.6,-0.3l0.6,-0.3l0.6,-0.3l0.6,-0.3l0.6,-0.3l0.6,-0.3l0.6,-0.3l0.6,-0.3l1.2,-0.5l3.1,-0.9l3.1,0.1l2.9,1l2.5,1.9l1.8,2.7l0.9,3.1l-0.1,3.1l-1,2.9l-1.9,2.5l-2.7,1.8l-1.2,0.5l-0.6,0.3l-0.6,0.3l-0.6,0.3l-0.6,0.3l-0.6,0.3l-0.6,0.3l-0.6,0.3l-0.6,0.3l-0.6,0.3l-0.6,0.3l-0.6,0.3l-0.6,0.3l-0.6,0.3l-0.6,0.3l-0.6,0.3l-0.6,0.3l-0.6,0.3l-0.6,0.3l-0.6,0.3l-0.6,0.3l-0.6,0.3l-0.6,0.3l-0.6,0.3l-0.6,0.3l-0.6,0.3l-0.6,0.3l-0.6,0.3l-0.6,0.3l-0.6,0.3l-0.6,0.3l-0.6,0.3l-0.5,0.3l-0.5,0.3l-0.5,0.3l-0.5,0.3l-0.5,0.3l-0.5,0.3l-0.5,0.3l-0.5,0.3l-0.5,0.3l-1.1,0.6l-0.5,0.3l-0.5,0.3l-0.5,0.3l-0.5,0.3l-0.5,0.3l-0.5,0.3l-0.5,0.3l-0.5,0.3l-0.5,0.3l-0.5,0.3l-0.5,0.3l-0.5,0.3l-0.5,0.3l-0.5,0.3l-0.5,0.3l-0.5,0.3l-0.5,0.3l-0.5,0.3l-0.5,0.3l-0.5,0.3l-0.5,0.3l-0.5,0.3l-0.5,0.3l-0.5,0.3l-0.5,0.3l-0.5,0.3l-0.5,0.3l-0.5,0.3l-0.5,0.3l-0.5,0.3l-0.5,0.3l-0.5,0.3l-0.5,0.3l-0.5,0.3l-0.4,0.3l-0.4,0.3l-0.4,0.3l-0.4,0.3l-0.4,0.3l-0.4,0.3l-0.4,0.3l-0.4,0.3l-0.4,0.3l-0.4,0.4l-0.4,0.4l-0.4,0.4l-0.4,0.4l-0.4,0.4l-0.4,0.4l-0.4,0.4l-0.4,0.4l-0.4,0.4l-0.4,0.4l-0.4,0.4l-0.4,0.4l-0.4,0.4l-0.4,0.4l-0.8,0.8l-0.4,0.4l-0.4,0.4l-0.4,0.4l-0.4,0.4l-0.4,0.4l-0.4,0.4l-0.4,0.4l-0.4,0.4l-0.4,0.4l-0.4,0.4l-0.4,0.4l-0.3,0.4l-0.3,0.4l-0.3,0.4l-0.3,0.4l-0.3,0.4l-0.3,0.4l-0.3,0.4l-0.3,0.4l-0.3,0.4l-0.3,0.4l-0.3,0.5l-0.3,0.5l-0.3,0.5l-0.3,0.5l-0.3,0.5l-0.3,0.5l-0.3,0.5l-0.3,0.5l-0.3,0.5l-0.3,0.5l-0.3,0.5l-0.3,0.5l-0.3,0.5l-0.3,0.5l-0.3,0.5l-0.3,0.5l-0.3,0.5l-0.3,0.5l-0.3,0.5l-0.3,0.5l-0.3,0.5l-0.3,0.5l-0.3,0.5l-0.3,0.5l-0.3,0.5l-0.3,0.5l-0.3,0.5l-0.3,0.5l-0.3,0.5l-0.3,0.5l-0.3,0.5l-0.3,0.5l-0.3,0.5l-0.3,0.5l-0.3,0.5l-0.3,0.5l-0.3,0.5l-0.3,0.5l-0.3,0.5l-0.3,0.5l-0.3,0.5l-0.3,0.5l-0.3,0.5l-0.3,0.5l-0.3,0.5l-0.3,0.5l-0.3,0.6l-0.3,0.6l-0.3,0.6l-0.3,0.6l-0.3,0.6l-0.3,0.6l-0.3,0.6l-0.3,0.6l-0.3,0.6l-0.3,0.6l-0.3,0.6l-0.3,0.6l-0.3,0.6l-0.3,0.6l-0.3,0.6l-0.3,0.6l-0.3,0.6l-0.3,0.6l-0.3,0.6l-0.3,0.6l-0.3,0.6l-0.3,0.6l-0.3,0.6l-0.3,0.6l-0.3,0.6l-0.3,0.6l-0.3,0.6l-0.3,0.6l-0.3,0.6l-0.3,0.6l0.3,0.5z" fill="#7CD0A4"/>
   <path d="m509.5,823c6.4,0 11.5,-5.1 11.5,-11.5l0,-325.5l-23,0l0,325.5c0,6.4 5.1,11.5 11.5,11.5z" fill="#4ABE81"/>
   <path d="m474.7,246.5l3.9,13.1c1.3,5.3 2.3,10.7 3.1,16.3c0.4,3 -0.5,6.1 -2.6,8.4c-2.1,2.3 -5,3.5 -8.1,3.4c-0.7,0 -10.8,-0.5 -24.6,-4.2l-5.4,-1.6l10,9.4c3.7,3.9 7.3,8.1 10.8,12.6c1.9,2.4 2.6,5.5 1.9,8.5c-0.7,3 -2.6,5.5 -5.3,7c-0.6,0.3 -9.6,4.9 -23.4,8.7l-5.4,1.3l13.3,3.1c5.2,1.5 10.4,3.4 15.7,5.5c2.8,1.2 5,3.5 5.9,6.4c0.9,2.9 0.5,6.1 -1.1,8.7c-0.4,0.6 -5.8,9.1 -15.9,19.2l-4.1,3.9l13.1,-3.9c5.3,-1.3 10.7,-2.3 16.3,-3.1c3,-0.4 6.1,0.5 8.4,2.6c2.3,2.1 3.5,5 3.4,8.1c0,0.7 -0.5,10.8 -4.2,24.6l-1.6,5.4l9.4,-10c3.9,-3.7 8.1,-7.3 12.6,-10.8c2.4,-1.9 5.5,-2.6 8.5,-1.9c3,0.7 5.5,2.6 7,5.3c0.3,0.6 4.9,9.6 8.7,23.4l1.3,5.4l3.1,-13.3c1.5,-5.2 3.4,-10.4 5.5,-15.7c1.2,-2.8 3.5,-5 6.4,-5.9c2.9,-0.9 6.1,-0.5 8.7,1.1c0.6,0.4 9.1,5.8 19.2,15.9l3.9,4.1l-3.9,-13.1c-1.3,-5.3 -2.3,-10.7 -3.1,-16.3c-0.4,-3 0.5,-6.1 2.6,-8.4c2.1,-2.3 5,-3.5 8.1,-3.4c0.7,0 10.8,0.5 24.6,4.2l5.4,1.6l-10,-9.4c-3.7,-3.9 -7.3,-8.1 -10.8,-12.6c-1.9,-2.4 -2.6,-5.5 -1.9,-8.5c0.7,-3 2.6,-5.5 5.3,-7c0.6,-0.3 9.6,-4.9 23.4,-8.7l5.4,-1.3l-13.3,-3.1c-5.2,-1.5 -10.4,-3.4 -15.7,-5.5c-2.8,-1.2 -5,-3.5 -5.9,-6.4c-0.9,-2.9 -0.5,-6.1 1.1,-8.7c0.4,-0.6 5.8,-9.1 15.9,-19.2l4.1,-3.9l-13.1,3.9c-5.3,1.3 -10.7,2.3 -16.3,3.1c-3,0.4 -6.1,-0.5 -8.4,-2.6c-2.3,-2.1 -3.5,-5 -3.4,-8.1c0,-0.7 0.5,-10.8 4.2,-24.6l1.6,-5.4l-9.4,10c-3.9,3.7 -8.1,7.3 -12.6,10.8c-2.4,1.9 -5.5,2.6 -8.5,1.9c-3,-0.7 -5.5,-2.6 -7,-5.3c-0.3,-0.6 -4.9,-9.6 -8.7,-23.4l-1.3,-5.4l-3.1,13.3c-1.5,5.2 -3.4,10.4 -5.5,15.7c-1.2,2.8 -3.5,5 -6.4,5.9c-2.9,0.9 -6.1,0.5 -8.7,-1.1c-0.6,-0.4 -9.1,-5.8 -19.2,-15.9l-3.9,-4.1zm-12.7,-131.5c4.2,-1.2 7.3,0.5 8.7,1.3c1,0.5 23.3,13.1 38.8,39.7c4,6.9 7.2,14.1 9.6,21.6l1,4.1l1.6,-7.6c5.8,-20.7 19,-42.5 46.5,-60.4c2.4,-1.6 5.3,-2.1 8.1,-1.4c4.2,1 6.1,4.1 6.9,5.5c0.6,0.9 13.7,23 13.8,53.8c0,8 -0.8,15.9 -2.5,23.5l-1.2,4l5.2,-5.8c15.3,-15 37.7,-27.3 70.4,-29c2.9,-0.2 5.6,0.9 7.7,2.9c3.1,3 3.2,6.6 3.2,8.2c0,1.1 0.3,26.8 -15,53.5c-4,6.9 -8.6,13.3 -14,19.1l-3,2.9l7.4,-2.4c20.8,-5.3 46.4,-4.8 75.5,10.1c2.5,1.3 4.4,3.6 5.2,6.3c1.2,4.2 -0.5,7.3 -1.3,8.7c-0.5,1 -13.1,23.3 -39.7,38.8c-6.9,4 -14.1,7.2 -21.6,9.6l-4.1,1l7.6,1.6c20.7,5.8 42.5,19 60.4,46.5c1.6,2.4 2,5.3 1.4,8.1c-1,4.2 -4.1,6.1 -5.5,6.9c-0.9,0.6 -23,13.7 -53.8,13.8c-8,0 -15.9,-0.8 -23.5,-2.5l-4,-1.2l5.8,5.2c15,15.3 27.3,37.7 29,70.4c0.1,2.9 -0.9,5.6 -2.9,7.7c-3,3.1 -6.6,3.2 -8.2,3.2c-1.1,0 -26.8,0.3 -53.5,-15c-6.9,-4 -13.3,-8.6 -19.1,-14l-2.9,-3l2.4,7.4c5.3,20.8 4.8,46.4 -10.1,75.5c-1.3,2.5 -3.6,4.4 -6.3,5.2c-4.2,1.2 -7.3,-0.5 -8.7,-1.3c-1,-0.5 -23.3,-13.1 -38.8,-39.7c-4,-6.9 -7.2,-14.2 -9.6,-21.6l-1,-4.1l-1.6,7.6c-5.8,20.7 -19,42.5 -46.5,60.4c-2.4,1.6 -5.3,2 -8.1,1.4c-4.2,-1 -6.1,-4.1 -6.9,-5.5c-0.6,-0.9 -13.7,-23 -13.8,-53.8c0,-8 0.8,-15.9 2.5,-23.5l1.2,-4l-5.2,5.8c-15.3,15 -37.7,27.3 -70.4,29c-2.9,0.1 -5.6,-0.9 -7.7,-2.9c-3.1,-3 -3.2,-6.6 -3.2,-8.2c0,-1.1 -0.3,-26.8 15,-53.5c4,-6.9 8.6,-13.3 14,-19.1l3,-2.9l-7.4,2.4c-20.8,5.3 -46.4,4.8 -75.5,-10.1c-2.5,-1.3 -4.4,-3.6 -5.2,-6.3c-1.2,-4.2 0.5,-7.3 1.3,-8.7c0.5,-1 13.1,-23.3 39.7,-38.8c6.9,-4 14.1,-7.2 21.6,-9.6l4.1,-1l-7.6,-1.6c-20.7,-5.8 -42.5,-19 -60.4,-46.5c-1.6,-2.4 -2.1,-5.3 -1.4,-8.1c1,-4.2 4.1,-6.1 5.5,-6.9c0.6,-0.4 9.4,-5.6 23.5,-9.5c8.4,-2.3 18.8,-4.2 30.3,-4.3c8,0 15.9,0.8 23.5,2.6l4.5,1.6l-6.2,-5.6c-15,-15.3 -27.3,-37.7 -29,-70.4c-0.2,-2.9 0.9,-5.6 2.9,-7.7c1.5,-1.6 3.2,-2.4 4.6,-2.8c1.5,-0.4 2.8,-0.4 3.5,-0.5c1.1,0 26.8,-0.3 53.5,15c6.9,4 13.3,8.6 19.1,14l2.9,3l-2.4,-7.4c-5.3,-20.8 -4.8,-46.4 10.1,-75.5c1.3,-2.5 3.6,-4.4 6.3,-5.2z" fill="#F99552"/>
   <path d="m133,909.5c0,-24.6 169.7,-44.5 379,-44.5s379,19.9 379,44.5s-169.7,44.5 -379,44.5s-379,-19.9 -379,-44.5z" fill="#EDEDEE"/>
   <path d="m489.5,234.6l0.1,13.7c-0.3,5.4 -0.8,10.9 -1.7,16.5c-0.5,3 -2.2,5.7 -4.9,7.3c-2.6,1.6 -5.8,1.9 -8.7,0.9c-0.6,-0.2 -10.2,-3.6 -22.4,-11l-4.7,-3.1l6.9,11.8c2.5,4.8 4.7,9.9 6.8,15.2c1.1,2.9 0.9,6.1 -0.6,8.7c-1.5,2.7 -4.1,4.6 -7.1,5.2c-0.7,0.1 -10.6,2 -24.9,1.7l-5.6,-0.3l11.9,6.8c4.5,2.9 9,6.2 13.5,9.7c2.4,1.9 3.8,4.8 3.9,7.9c0.1,3.1 -1.2,6 -3.6,8c-0.5,0.4 -8.2,7 -20.7,13.9l-5,2.5l13.7,-0.1c5.4,0.3 10.9,0.8 16.5,1.7c3,0.5 5.7,2.2 7.3,4.9c1.6,2.6 1.9,5.8 0.9,8.7c-0.2,0.6 -3.6,10.2 -11,22.4l-3.1,4.7l11.8,-6.9c4.8,-2.5 9.9,-4.7 15.2,-6.8c2.9,-1.1 6.1,-0.9 8.7,0.6c2.7,1.5 4.6,4.1 5.2,7.1c0.1,0.7 2,10.6 1.7,24.9l-0.3,5.6l6.8,-11.9c2.9,-4.5 6.2,-9 9.7,-13.5c1.9,-2.4 4.8,-3.8 7.9,-3.9c3.1,-0.1 6,1.2 8,3.6c0.4,0.5 7,8.2 13.9,20.7l2.5,5l-0.1,-13.7c0.3,-5.4 0.8,-10.9 1.7,-16.5c0.5,-3 2.2,-5.7 4.9,-7.3c2.6,-1.6 5.8,-1.9 8.7,-0.9c0.6,0.2 10.2,3.6 22.4,11l4.7,3.1l-6.9,-11.8c-2.5,-4.8 -4.7,-9.9 -6.8,-15.2c-1.1,-2.9 -0.9,-6.1 0.6,-8.7c1.5,-2.7 4.1,-4.6 7.1,-5.2c0.7,-0.1 10.6,-2 24.9,-1.7l5.6,0.3l-11.9,-6.8c-4.5,-2.9 -9,-6.2 -13.5,-9.7c-2.4,-1.9 -3.8,-4.8 -3.9,-7.9c-0.1,-3.1 1.2,-6 3.6,-8c0.5,-0.4 8.2,-7 20.7,-13.9l5,-2.5l-13.7,0.1c-5.4,-0.3 -10.9,-0.8 -16.5,-1.7c-3,-0.5 -5.7,-2.2 -7.3,-4.9c-1.6,-2.6 -1.9,-5.8 -0.9,-8.7c0.2,-0.6 3.6,-10.2 11,-22.4l3.1,-4.7l-11.8,6.9c-4.8,2.5 -9.9,4.7 -15.2,6.8c-2.9,1.1 -6.1,0.9 -8.7,-0.6c-2.7,-1.5 -4.6,-4.1 -5.2,-7.1c-0.1,-0.7 -2,-10.6 -1.7,-24.9l0.3,-5.6l-6.8,11.9c-2.9,4.5 -6.2,9 -9.7,13.5c-1.9,2.4 -4.8,3.8 -7.9,3.9c-3.1,0.1 -6,-1.2 -8,-3.6c-0.4,-0.5 -7,-8.2 -13.9,-20.7l-2.5,-5zm25.3,-129.7c4.4,0 6.9,2.6 8,3.7c0.8,0.8 18.7,19.2 25.9,49.1c1.9,7.8 2.9,15.6 3,23.5l-0.2,4.2l3.7,-6.8c11.4,-18.2 30.3,-35.4 61.7,-44.7c2.7,-0.8 5.7,-0.5 8.2,1c3.8,2.2 4.7,5.7 5.1,7.2c0.3,1.1 6.6,25.9 -2.1,55.5c-2.3,7.7 -5.3,15 -9.1,21.8l-2.3,3.6l6.6,-4c18.9,-10 44,-15.5 75.8,-7.8c2.8,0.7 5.2,2.5 6.6,4.9c2.2,3.8 1.2,7.3 0.8,8.8c-0.3,1.1 -7.3,25.7 -29.6,47c-5.8,5.5 -12.1,10.3 -18.8,14.3l-3.7,1.9l7.7,-0.2c21.4,0.8 45.8,8.6 69.5,31.1c2.1,2 3.2,4.7 3.2,7.6c0,4.4 -2.6,6.9 -3.7,8c-0.8,0.8 -19.2,18.7 -49.1,25.9c-7.8,1.9 -15.6,2.9 -23.5,3l-4.2,-0.2l6.8,3.7c18.2,11.4 35.4,30.3 44.7,61.7c0.8,2.7 0.5,5.7 -1,8.2c-2.2,3.8 -5.7,4.7 -7.2,5.1c-1.1,0.3 -25.9,6.6 -55.5,-2.1c-7.7,-2.3 -15,-5.3 -21.8,-9.1l-3.6,-2.3l4,6.6c10,18.9 15.5,44 7.8,75.8c-0.7,2.8 -2.5,5.2 -4.9,6.6c-3.8,2.2 -7.3,1.2 -8.8,0.8c-1.1,-0.3 -25.7,-7.3 -47,-29.6c-5.5,-5.8 -10.3,-12.1 -14.3,-18.8l-1.9,-3.7l0.2,7.7c-0.8,21.4 -8.6,45.8 -31.1,69.5c-2,2.1 -4.7,3.2 -7.6,3.2c-4.4,0 -6.9,-2.6 -8,-3.7c-0.8,-0.8 -18.7,-19.2 -25.9,-49.1c-1.9,-7.8 -2.9,-15.6 -3,-23.5l0.2,-4.2l-3.7,6.8c-11.4,18.2 -30.3,35.4 -61.7,44.7c-2.7,0.8 -5.7,0.5 -8.2,-1c-3.8,-2.2 -4.7,-5.7 -5.1,-7.2c-0.3,-1.1 -6.6,-25.9 2.1,-55.5c2.3,-7.7 5.3,-15 9.1,-21.8l2.3,-3.6l-6.6,4c-18.9,10 -44,15.5 -75.8,7.8c-2.8,-0.7 -5.2,-2.5 -6.6,-4.9c-2.2,-3.8 -1.2,-7.3 -0.8,-8.8c0.3,-1.1 7.3,-25.7 29.6,-47c5.8,-5.5 12.1,-10.3 18.8,-14.3l3.7,-1.9l-7.7,0.2c-21.4,-0.8 -45.8,-8.6 -69.5,-31.1c-2.1,-2 -3.2,-4.7 -3.2,-7.6c0,-4.4 2.6,-6.9 3.7,-8c0.8,-0.8 19.2,-18.7 49.1,-25.9c7.8,-1.9 15.6,-2.9 23.5,-3l4.2,0.2l-6.8,-3.7c-18.2,-11.4 -35.4,-30.3 -44.7,-61.7c-0.8,-2.7 -0.5,-5.7 1,-8.2c2.2,-3.8 5.7,-4.7 7.2,-5.1c0.7,-0.2 10.6,-2.7 25.2,-2.4c8.8,0.1 19.2,1.3 30.3,4.5c7.7,2.3 15,5.3 21.8,9.1l3.9,2.8l-4.4,-7.1c-10,-18.9 -15.5,-44 -7.8,-75.8c0.7,-2.8 2.5,-5.2 4.9,-6.6c1.9,-1.1 3.7,-1.4 5.2,-1.4s2.8,0.4 3.5,0.6c1.1,0.3 25.7,7.3 47,29.6c5.5,5.8 10.3,12.1 14.3,18.8l1.9,3.7l-0.2,-7.7c0.8,-21.4 8.6,-45.8 31.1,-69.5c2.2,-2 4.9,-3.2 7.8,-3.2z" fill="#FED572"/>
   <path d="m406,328.5c0,-62.7 50.8,-113.5 113.5,-113.5s113.5,50.8 113.5,113.5s-50.8,113.5 -113.5,113.5s-113.5,-50.8 -113.5,-113.5z" fill="#F99552"/>
   <path d="m437,328c0,-45.3 36.9,-82 82.5,-82s82.5,36.7 82.5,82s-36.9,82 -82.5,82s-82.5,-36.7 -82.5,-82z" fill="#976C4F"/>
  </symbol>
 </defs>
 <g class="layer">
  <title>Layer 1</title>
  <use id="svg_2" transform="matrix(4.83318 0 0 4.83318 -131.68 -506.844)" x="16.497868" xlink:href="#svg_1" y="125.601175"/>
  <g id="svg_3"/>
  <text fill="#3f3f3f" font-family="Cursive" font-size="24" id="svg_4" stroke="#000000" stroke-width="0" text-anchor="middle" transform="matrix(22.4366 0 0 22.4366 -6878.43 -5550.93)" x="364.533565" xml:space="preserve" y="282.772335">ZXY</text>
 </g>
</svg>